<svg width="294" height="113" viewBox="0 0 294 113" fill="none" xmlns="http://www.w3.org/2000/svg">
<g clip-path="url(#clip0_1_6455)">
<mask id="mask0_1_6455" style="mask-type:luminance" maskUnits="userSpaceOnUse" x="0" y="0" width="294" height="113">
<path d="M293.705 0.5H0V112.508H293.705V0.5Z" fill="white"/>
</mask>
<g mask="url(#mask0_1_6455)">
<path d="M141.679 4.55762H140.041V106.007H141.679V4.55762Z" fill="white"/>
<path fill-rule="evenodd" clip-rule="evenodd" d="M41.7018 31.9006L73.575 50.1533L105.35 31.9006L91.3951 23.947V23.8496L73.575 13.6397L55.6565 23.8496V23.947L41.7018 31.9006ZM77.4322 56.8328L109.305 38.58V75.0855L91.3869 85.2954L77.4322 93.3464V56.8409V56.8328ZM7.74844 94.5151C5.27523 95.9841 2.10593 95.0994 0.721917 92.6484C-0.760367 90.1974 0.12409 87.0565 2.60548 85.5794L12.6048 79.8902C15.078 78.5186 18.2473 79.3058 19.7296 81.7568C21.1136 84.3052 20.3274 87.4461 17.7477 88.8258L7.74844 94.5151ZM75.4585 5.88896L95.3506 17.1783L115.144 28.5649L117.126 29.6444V79.5006L115.144 80.6774L95.3506 91.9667L75.4585 103.353L73.575 104.433L60.7094 111.794C58.1379 113.263 54.9686 112.378 53.5846 109.927C52.2006 107.476 52.9868 104.335 55.4682 102.956L62.6912 98.7354L63.1826 98.5406L63.8787 98.151C66.3519 96.682 67.2445 93.5412 65.7623 91.082C64.3782 88.631 61.2089 87.7464 58.7357 89.2154L35.9692 102.168C33.496 103.54 30.3267 102.761 28.9426 100.302C27.4604 97.8507 28.3448 94.7099 30.8262 93.2328L36.3704 90.0919L42.406 86.6589L44.781 85.2873C47.2542 83.9157 48.1468 80.6774 46.6645 78.2183C45.2805 75.7673 42.1112 74.98 39.638 76.3516L34.1921 79.3951L32.0137 80.6693L29.9336 81.8461C27.4604 83.3151 24.2911 82.4386 22.907 79.9794C21.4248 77.5284 22.3174 74.3875 24.7906 72.9104L30.04 69.9644L34.9864 67.1157C37.5579 65.6467 38.3523 62.5058 36.9683 60.0467C35.5843 57.5957 32.5132 56.8084 30.04 58.0826L18.2636 64.8513C15.6922 66.2229 12.5229 65.3464 11.1389 62.8873C9.75484 60.4362 10.541 57.2954 13.0224 55.9157L29.5568 46.3957C29.7534 46.2983 29.8517 46.2983 30.0482 46.2009V29.6119L31.9318 28.5325L51.8239 17.1458L71.6259 5.8565L73.6077 4.67969L75.4913 5.8565L75.4585 5.88896Z" fill="#0000FF"/>
</g>
<path d="M175.918 24.6562H172.185C172.116 24.1733 171.977 23.7443 171.767 23.3693C171.557 22.9886 171.287 22.6648 170.957 22.3977C170.628 22.1307 170.247 21.9261 169.815 21.7841C169.389 21.642 168.926 21.571 168.426 21.571C167.523 21.571 166.736 21.7955 166.065 22.2443C165.395 22.6875 164.875 23.3352 164.506 24.1875C164.136 25.0341 163.952 26.0625 163.952 27.2727C163.952 28.517 164.136 29.5625 164.506 30.4091C164.881 31.2557 165.403 31.8949 166.074 32.3267C166.744 32.7585 167.52 32.9744 168.401 32.9744C168.895 32.9744 169.352 32.9091 169.773 32.7784C170.199 32.6477 170.577 32.4574 170.906 32.2074C171.236 31.9517 171.509 31.642 171.724 31.2784C171.946 30.9148 172.099 30.5 172.185 30.0341L175.918 30.0511C175.821 30.8523 175.58 31.625 175.193 32.3693C174.813 33.108 174.298 33.7699 173.651 34.3551C173.009 34.9347 172.241 35.3949 171.349 35.7358C170.463 36.071 169.46 36.2386 168.341 36.2386C166.784 36.2386 165.392 35.8864 164.165 35.1818C162.943 34.4773 161.977 33.4574 161.267 32.1222C160.562 30.7869 160.21 29.1705 160.21 27.2727C160.21 25.3693 160.568 23.75 161.284 22.4148C162 21.0795 162.972 20.0625 164.199 19.3636C165.426 18.6591 166.807 18.3068 168.341 18.3068C169.352 18.3068 170.29 18.4489 171.153 18.733C172.023 19.017 172.793 19.4318 173.463 19.9773C174.134 20.517 174.679 21.179 175.099 21.9631C175.526 22.7472 175.798 23.6449 175.918 24.6562ZM181.244 36H177.29L183.315 18.5455H188.071L194.088 36H190.134L185.761 22.5341H185.625L181.244 36ZM180.997 29.1392H190.338V32.0199H180.997V29.1392ZM196.189 36V18.5455H203.075C204.393 18.5455 205.518 18.7812 206.45 19.2528C207.388 19.7187 208.101 20.3807 208.589 21.2386C209.084 22.0909 209.331 23.0937 209.331 24.2472C209.331 25.4062 209.081 26.4034 208.581 27.2386C208.081 28.0682 207.357 28.7045 206.408 29.1477C205.464 29.5909 204.322 29.8125 202.982 29.8125H198.371V26.8466H202.385C203.089 26.8466 203.675 26.75 204.141 26.5568C204.607 26.3636 204.953 26.0739 205.18 25.6875C205.413 25.3011 205.53 24.821 205.53 24.2472C205.53 23.6676 205.413 23.179 205.18 22.7812C204.953 22.3835 204.604 22.0824 204.132 21.8778C203.666 21.6676 203.078 21.5625 202.368 21.5625H199.879V36H196.189ZM205.615 28.0568L209.953 36H205.879L201.635 28.0568H205.615ZM223.513 24.1875C223.393 23.7727 223.226 23.4062 223.01 23.0881C222.794 22.7642 222.53 22.4915 222.217 22.2699C221.911 22.0426 221.558 21.8693 221.161 21.75C220.768 21.6307 220.334 21.571 219.857 21.571C218.964 21.571 218.18 21.7926 217.504 22.2358C216.834 22.679 216.311 23.3239 215.936 24.1705C215.561 25.0114 215.374 26.0398 215.374 27.2557C215.374 28.4716 215.558 29.5057 215.928 30.358C216.297 31.2102 216.82 31.8608 217.496 32.3097C218.172 32.7528 218.97 32.9744 219.891 32.9744C220.726 32.9744 221.439 32.8267 222.03 32.5312C222.626 32.2301 223.081 31.8068 223.393 31.2614C223.712 30.7159 223.871 30.071 223.871 29.3267L224.621 29.4375H220.121V26.6591H227.425V28.858C227.425 30.392 227.101 31.7102 226.453 32.8125C225.805 33.9091 224.913 34.7557 223.777 35.3523C222.641 35.9432 221.339 36.2386 219.874 36.2386C218.237 36.2386 216.8 35.8778 215.561 35.1562C214.322 34.429 213.357 33.3977 212.663 32.0625C211.976 30.7216 211.632 29.1307 211.632 27.2898C211.632 25.875 211.837 24.6136 212.246 23.5057C212.661 22.392 213.24 21.4489 213.984 20.6761C214.729 19.9034 215.595 19.3153 216.584 18.9119C217.572 18.5085 218.643 18.3068 219.797 18.3068C220.786 18.3068 221.706 18.4517 222.558 18.7415C223.411 19.0256 224.166 19.429 224.825 19.9517C225.49 20.4744 226.033 21.0966 226.453 21.8182C226.874 22.5341 227.143 23.3239 227.263 24.1875H223.513ZM246.237 27.2727C246.237 29.1761 245.876 30.7955 245.154 32.1307C244.438 33.4659 243.461 34.4858 242.222 35.1903C240.989 35.8892 239.603 36.2386 238.063 36.2386C236.512 36.2386 235.12 35.8864 233.887 35.1818C232.654 34.4773 231.68 33.4574 230.964 32.1222C230.248 30.7869 229.89 29.1705 229.89 27.2727C229.89 25.3693 230.248 23.75 230.964 22.4148C231.68 21.0795 232.654 20.0625 233.887 19.3636C235.12 18.6591 236.512 18.3068 238.063 18.3068C239.603 18.3068 240.989 18.6591 242.222 19.3636C243.461 20.0625 244.438 21.0795 245.154 22.4148C245.876 23.75 246.237 25.3693 246.237 27.2727ZM242.495 27.2727C242.495 26.0398 242.31 25 241.941 24.1534C241.577 23.3068 241.063 22.6648 240.398 22.2273C239.734 21.7898 238.955 21.571 238.063 21.571C237.171 21.571 236.393 21.7898 235.728 22.2273C235.063 22.6648 234.546 23.3068 234.177 24.1534C233.813 25 233.631 26.0398 233.631 27.2727C233.631 28.5057 233.813 29.5455 234.177 30.392C234.546 31.2386 235.063 31.8807 235.728 32.3182C236.393 32.7557 237.171 32.9744 238.063 32.9744C238.955 32.9744 239.734 32.7557 240.398 32.3182C241.063 31.8807 241.577 31.2386 241.941 30.392C242.31 29.5455 242.495 28.5057 242.495 27.2727ZM160.517 65V47.5455H172.074V50.5881H164.207V54.7472H171.307V57.7898H164.207V65H160.517ZM175.385 65H171.43L177.456 47.5455H182.212L188.229 65H184.274L179.902 51.5341H179.766L175.385 65ZM175.138 58.1392H184.479V61.0199H175.138V58.1392ZM204.929 47.5455V65H201.741L194.148 54.0142H194.02V65H190.33V47.5455H193.568L201.102 58.5227H201.256V47.5455H204.929ZM207.313 50.5881V47.5455H221.648V50.5881H216.305V65H212.657V50.5881H207.313ZM224.885 65H220.93L226.956 47.5455H231.712L237.729 65H233.774L229.402 51.5341H229.266L224.885 65ZM224.638 58.1392H233.979V61.0199H224.638V58.1392ZM248.9 52.5653C248.832 51.8778 248.539 51.3437 248.022 50.9631C247.505 50.5824 246.803 50.392 245.917 50.392C245.315 50.392 244.806 50.4773 244.391 50.6477C243.977 50.8125 243.658 51.0426 243.437 51.3381C243.221 51.6335 243.113 51.9688 243.113 52.3438C243.102 52.6562 243.167 52.929 243.309 53.1619C243.457 53.3949 243.658 53.5966 243.914 53.767C244.17 53.9318 244.465 54.0767 244.8 54.2017C245.136 54.321 245.494 54.4233 245.874 54.5085L247.442 54.8835C248.204 55.054 248.903 55.2812 249.539 55.5653C250.175 55.8494 250.727 56.1989 251.192 56.6136C251.658 57.0284 252.019 57.517 252.275 58.0795C252.536 58.642 252.67 59.2869 252.675 60.0142C252.67 61.0824 252.397 62.0085 251.857 62.7926C251.323 63.571 250.55 64.1761 249.539 64.608C248.533 65.0341 247.32 65.2472 245.9 65.2472C244.491 65.2472 243.263 65.0312 242.218 64.5994C241.178 64.1676 240.366 63.5284 239.781 62.6818C239.201 61.8295 238.897 60.7756 238.869 59.5199H242.44C242.479 60.1051 242.647 60.5937 242.942 60.9858C243.244 61.3722 243.644 61.6648 244.144 61.8636C244.65 62.0568 245.221 62.1534 245.857 62.1534C246.482 62.1534 247.025 62.0625 247.485 61.8807C247.951 61.6989 248.312 61.446 248.567 61.1222C248.823 60.7983 248.951 60.4261 248.951 60.0057C248.951 59.6136 248.835 59.2841 248.602 59.017C248.374 58.75 248.039 58.5227 247.596 58.3352C247.158 58.1477 246.621 57.9773 245.985 57.8239L244.085 57.3466C242.613 56.9886 241.451 56.429 240.599 55.6676C239.746 54.9062 239.323 53.8807 239.329 52.5909C239.323 51.5341 239.604 50.6108 240.173 49.821C240.746 49.0312 241.533 48.4148 242.533 47.9716C243.533 47.5284 244.67 47.3068 245.942 47.3068C247.238 47.3068 248.369 47.5284 249.335 47.9716C250.306 48.4148 251.062 49.0312 251.602 49.821C252.141 50.6108 252.42 51.5256 252.437 52.5653H248.9ZM254.135 47.5455H258.268L262.249 55.0625H262.419L266.399 47.5455H270.533L264.166 58.8295V65H260.501V58.8295L254.135 47.5455ZM160.517 94V76.5455H164.207V90.9574H171.69V94H160.517ZM177.825 76.5455V94H174.134V76.5455H177.825ZM180.861 76.5455H185.412L190.219 88.2727H190.423L195.23 76.5455H199.781V94H196.202V82.6392H196.057L191.54 93.9148H189.102L184.585 82.5966H184.44V94H180.861V76.5455ZM206.512 76.5455V94H202.822V76.5455H206.512ZM208.884 79.5881V76.5455H223.219V79.5881H217.875V94H214.227V79.5881H208.884ZM225.58 94V76.5455H237.341V79.5881H229.27V83.7472H236.736V86.7898H229.27V90.9574H237.375V94H225.58ZM246.462 94H240.275V76.5455H246.513C248.269 76.5455 249.781 76.8949 251.048 77.5938C252.315 78.2869 253.289 79.2841 253.971 80.5852C254.658 81.8864 255.002 83.4432 255.002 85.2557C255.002 87.0739 254.658 88.6364 253.971 89.9432C253.289 91.25 252.309 92.2528 251.031 92.9517C249.758 93.6506 248.235 94 246.462 94ZM243.965 90.8381H246.309C247.4 90.8381 248.317 90.6449 249.062 90.2585C249.812 89.8665 250.374 89.2614 250.749 88.4432C251.13 87.6193 251.32 86.5568 251.32 85.2557C251.32 83.9659 251.13 82.9119 250.749 82.0938C250.374 81.2756 249.815 80.6733 249.07 80.2869C248.326 79.9006 247.408 79.7074 246.317 79.7074H243.965V90.8381Z" fill="white"/>
</g>
<defs>
<clipPath id="clip0_1_6455">
<rect width="294" height="112" fill="white" transform="translate(0 0.5)"/>
</clipPath>
</defs>
</svg>
