<svg width="132" height="50" viewBox="0 0 132 50" fill="none" xmlns="http://www.w3.org/2000/svg">
<g clip-path="url(#clip0_1_6783)">
<mask id="mask0_1_6783" style="mask-type:luminance" maskUnits="userSpaceOnUse" x="0" y="0" width="132" height="51">
<path d="M131.369 0H0.5V50.0036H131.369V0Z" fill="white"/>
</mask>
<g mask="url(#mask0_1_6783)">
<path d="M63.6282 1.81152H62.8984V47.1014H63.6282V1.81152Z" fill="#333333"/>
<path fill-rule="evenodd" clip-rule="evenodd" d="M19.0814 14.0184L33.2834 22.167L47.4416 14.0184L41.2237 10.4677V10.4242L33.2834 5.86623L25.2993 10.4242V10.4677L19.0814 14.0184ZM35.0021 25.1488L49.2041 17.0003V33.2974L41.22 37.8554L35.0021 41.4496V25.1525V25.1488ZM3.95253 41.9713C2.85053 42.6271 1.43836 42.2322 0.821671 41.138C0.161197 40.0438 0.555292 38.6416 1.66095 37.9822L6.11641 35.4423C7.21841 34.83 8.63058 35.1814 9.29106 36.2756C9.90774 37.4133 9.55744 38.8155 8.40799 39.4314L3.95253 41.9713ZM34.1227 2.40607L42.9862 7.44594L51.8059 12.5293L52.6889 13.0112V35.2684L51.8059 35.7938L42.9862 40.8336L34.1227 45.917L33.2834 46.3988L27.5508 49.6851C26.405 50.3409 24.9928 49.9459 24.3761 48.8517C23.7594 47.7575 24.1097 46.3554 25.2154 45.7394L28.4338 43.8554L28.6528 43.7684L28.963 43.5945C30.065 42.9387 30.4627 41.5365 29.8022 40.4387C29.1855 39.3445 27.7734 38.9496 26.6714 39.6054L16.5271 45.388C15.4251 46.0003 14.0129 45.6525 13.3962 44.5546C12.7357 43.4604 13.1298 42.0583 14.2355 41.3988L16.7059 39.9967L19.3952 38.4641L20.4534 37.8517C21.5554 37.2394 21.9532 35.7938 21.2927 34.6959C20.676 33.6017 19.2638 33.2503 18.1618 33.8626L15.7352 35.2213L14.7646 35.7901L13.8377 36.3155C12.7357 36.9713 11.3236 36.58 10.7069 35.4822C10.0464 34.388 10.4441 32.9858 11.5462 32.3264L13.8852 31.0112L16.0892 29.7394C17.235 29.0836 17.5889 27.6814 16.9723 26.5836C16.3556 25.4894 14.9872 25.138 13.8852 25.7068L8.63788 28.7285C7.49209 29.3409 6.07992 28.9496 5.46323 27.8517C4.84655 26.7575 5.19685 25.3554 6.30251 24.7394L13.6699 20.4894C13.7575 20.4459 13.8013 20.4459 13.8888 20.4025V12.9967L14.7281 12.5148L23.5916 7.43144L32.4149 2.39157L33.298 1.86621L34.1373 2.39157L34.1227 2.40607Z" fill="#0000FF"/>
<path d="M80.1637 11.8555H78.1417C78.1048 11.5939 78.0294 11.3615 77.9155 11.1584C77.8016 10.9522 77.6554 10.7768 77.4769 10.6321C77.2984 10.4875 77.0922 10.3767 76.8583 10.2997C76.6275 10.2228 76.3767 10.1843 76.1058 10.1843C75.6165 10.1843 75.1902 10.3059 74.8271 10.549C74.4639 10.7891 74.1823 11.1399 73.9822 11.6016C73.7822 12.0601 73.6822 12.6172 73.6822 13.2727C73.6822 13.9467 73.7822 14.513 73.9822 14.9716C74.1854 15.4302 74.4685 15.7764 74.8317 16.0103C75.1948 16.2442 75.6149 16.3612 76.092 16.3612C76.3597 16.3612 76.6075 16.3258 76.8352 16.255C77.0661 16.1842 77.2707 16.0811 77.4492 15.9457C77.6277 15.8072 77.7755 15.6394 77.8924 15.4425C78.0124 15.2455 78.0955 15.0208 78.1417 14.7685L80.1637 14.7777C80.1114 15.2116 79.9806 15.6302 79.7713 16.0334C79.5651 16.4335 79.2866 16.792 78.9357 17.109C78.5879 17.4229 78.1725 17.6722 77.6893 17.8569C77.2092 18.0385 76.666 18.1293 76.0597 18.1293C75.2164 18.1293 74.4624 17.9384 73.7976 17.5568C73.1359 17.1752 72.6127 16.6228 72.228 15.8995C71.8464 15.1763 71.6555 14.3007 71.6555 13.2727C71.6555 12.2417 71.8494 11.3646 72.2372 10.6413C72.625 9.91809 73.1513 9.36719 73.8161 8.98864C74.4808 8.60701 75.2287 8.41619 76.0597 8.41619C76.6075 8.41619 77.1153 8.49313 77.5831 8.64702C78.054 8.8009 78.471 9.02557 78.8342 9.32102C79.1973 9.6134 79.4928 9.97195 79.7205 10.3967C79.9513 10.8214 80.0991 11.3076 80.1637 11.8555ZM83.5822 18.1339C83.1298 18.1339 82.7266 18.0554 82.3727 17.8984C82.0188 17.7384 81.7387 17.503 81.5325 17.1921C81.3294 16.8782 81.2278 16.4873 81.2278 16.0195C81.2278 15.6256 81.3001 15.2947 81.4448 15.027C81.5894 14.7592 81.7864 14.5438 82.0357 14.3807C82.285 14.2176 82.5681 14.0945 82.8851 14.0114C83.2052 13.9283 83.5407 13.8698 83.8915 13.8359C84.3039 13.7929 84.6363 13.7528 84.8887 13.7159C85.141 13.6759 85.3242 13.6174 85.438 13.5405C85.5519 13.4635 85.6088 13.3497 85.6088 13.1989V13.1712C85.6088 12.8788 85.5165 12.6526 85.3319 12.4925C85.1503 12.3325 84.8917 12.2525 84.5563 12.2525C84.2024 12.2525 83.9208 12.331 83.7115 12.4879C83.5022 12.6418 83.3637 12.8357 83.296 13.0696L81.4771 12.9219C81.5694 12.491 81.751 12.1186 82.0218 11.8047C82.2927 11.4877 82.642 11.2446 83.0698 11.0753C83.5007 10.9029 83.9992 10.8168 84.5655 10.8168C84.9595 10.8168 85.3365 10.8629 85.6966 10.9553C86.0597 11.0476 86.3813 11.1907 86.6614 11.3846C86.9445 11.5785 87.1677 11.8278 87.3308 12.1325C87.4939 12.4341 87.5755 12.7957 87.5755 13.2173V18H85.7104V17.0167H85.655C85.5411 17.2383 85.3888 17.4337 85.198 17.603C85.0072 17.7692 84.7779 17.9 84.5101 17.9954C84.2424 18.0877 83.9331 18.1339 83.5822 18.1339ZM84.1454 16.7766C84.4347 16.7766 84.6902 16.7197 84.9118 16.6058C85.1333 16.4889 85.3072 16.3319 85.4334 16.1349C85.5596 15.938 85.6227 15.7148 85.6227 15.4656V14.7131C85.5611 14.7531 85.4765 14.79 85.3688 14.8239C85.2641 14.8546 85.1457 14.8839 85.0133 14.9116C84.881 14.9362 84.7486 14.9593 84.6163 14.9808C84.484 14.9993 84.3639 15.0162 84.2562 15.0316C84.0254 15.0655 83.8238 15.1193 83.6515 15.1932C83.4791 15.267 83.3452 15.3671 83.2498 15.4933C83.1544 15.6164 83.1067 15.7702 83.1067 15.9549C83.1067 16.2227 83.2037 16.4273 83.3975 16.5689C83.5945 16.7074 83.8438 16.7766 84.1454 16.7766ZM89.1012 18V10.9091H91.0078V12.1463H91.0817C91.2109 11.7062 91.4279 11.3738 91.7326 11.1491C92.0373 10.9214 92.3881 10.8075 92.7852 10.8075C92.8836 10.8075 92.9898 10.8137 93.1037 10.826C93.2176 10.8383 93.3176 10.8552 93.4038 10.8768V12.6218C93.3114 12.5941 93.1837 12.5695 93.0206 12.5479C92.8575 12.5264 92.7082 12.5156 92.5728 12.5156C92.2835 12.5156 92.025 12.5787 91.7972 12.7049C91.5726 12.828 91.3941 13.0004 91.2617 13.2219C91.1325 13.4435 91.0678 13.699 91.0678 13.9883V18H89.1012ZM97.2851 20.8068C96.648 20.8068 96.1017 20.7191 95.6462 20.5437C95.1938 20.3713 94.8337 20.1359 94.566 19.8374C94.2982 19.5388 94.1243 19.2034 94.0443 18.831L95.8632 18.5863C95.9186 18.7279 96.0063 18.8602 96.1263 18.9833C96.2464 19.1064 96.4049 19.2049 96.6018 19.2788C96.8019 19.3557 97.045 19.3942 97.3312 19.3942C97.759 19.3942 98.1114 19.2895 98.3884 19.0803C98.6685 18.8741 98.8085 18.5278 98.8085 18.0415V16.7443H98.7254C98.6392 16.9413 98.51 17.1275 98.3376 17.3029C98.1653 17.4783 97.9437 17.6214 97.6729 17.7322C97.402 17.843 97.0789 17.8984 96.7034 17.8984C96.171 17.8984 95.6862 17.7753 95.2492 17.5291C94.8153 17.2798 94.469 16.8997 94.2105 16.3888C93.955 15.8749 93.8273 15.2255 93.8273 14.4407C93.8273 13.6374 93.9581 12.9665 94.2197 12.4279C94.4813 11.8893 94.8291 11.4862 95.2631 11.2184C95.7001 10.9506 96.1787 10.8168 96.6988 10.8168C97.0958 10.8168 97.4282 10.8845 97.6959 11.0199C97.9637 11.1522 98.1791 11.3184 98.3422 11.5185C98.5084 11.7154 98.6362 11.9093 98.7254 12.1001H98.7993V10.9091H100.752V18.0692C100.752 18.6725 100.604 19.1772 100.309 19.5835C100.013 19.9897 99.6041 20.2944 99.0809 20.4975C98.5608 20.7037 97.9622 20.8068 97.2851 20.8068ZM97.3266 16.4212C97.6436 16.4212 97.9114 16.3427 98.1299 16.1857C98.3515 16.0257 98.5207 15.7979 98.6377 15.5025C98.7577 15.204 98.8177 14.8469 98.8177 14.4315C98.8177 14.016 98.7593 13.6559 98.6423 13.3512C98.5254 13.0434 98.3561 12.8049 98.1345 12.6357C97.9129 12.4664 97.6436 12.3817 97.3266 12.3817C97.0035 12.3817 96.7311 12.4695 96.5095 12.6449C96.2879 12.8172 96.1202 13.0573 96.0063 13.3651C95.8924 13.6728 95.8355 14.0283 95.8355 14.4315C95.8355 14.8408 95.8924 15.1947 96.0063 15.4933C96.1233 15.7887 96.291 16.018 96.5095 16.1811C96.7311 16.3411 97.0035 16.4212 97.3266 16.4212ZM105.521 18.1385C104.804 18.1385 104.184 17.9862 103.66 17.6815C103.14 17.3737 102.739 16.9459 102.456 16.3981C102.172 15.8472 102.031 15.2086 102.031 14.4822C102.031 13.7498 102.172 13.1096 102.456 12.5618C102.739 12.0109 103.14 11.5831 103.66 11.2784C104.184 10.9706 104.804 10.8168 105.521 10.8168C106.238 10.8168 106.857 10.9706 107.377 11.2784C107.9 11.5831 108.303 12.0109 108.586 12.5618C108.869 13.1096 109.011 13.7498 109.011 14.4822C109.011 15.2086 108.869 15.8472 108.586 16.3981C108.303 16.9459 107.9 17.3737 107.377 17.6815C106.857 17.9862 106.238 18.1385 105.521 18.1385ZM105.53 16.6151C105.856 16.6151 106.129 16.5227 106.347 16.3381C106.566 16.1503 106.73 15.8949 106.841 15.5717C106.955 15.2486 107.012 14.8808 107.012 14.4684C107.012 14.056 106.955 13.6882 106.841 13.3651C106.73 13.0419 106.566 12.7865 106.347 12.5987C106.129 12.411 105.856 12.3171 105.53 12.3171C105.201 12.3171 104.924 12.411 104.699 12.5987C104.478 12.7865 104.31 13.0419 104.196 13.3651C104.085 13.6882 104.03 14.056 104.03 14.4684C104.03 14.8808 104.085 15.2486 104.196 15.5717C104.31 15.8949 104.478 16.1503 104.699 16.3381C104.924 16.5227 105.201 16.6151 105.53 16.6151Z" fill="#4D4D4D"/>
<path d="M71.8217 30V20.5455H78.0817V22.1935H73.8207V24.4464H77.6662V26.0945H73.8207V30H71.8217ZM81.3224 30.1339C80.87 30.1339 80.4669 30.0554 80.1129 29.8984C79.759 29.7384 79.4789 29.503 79.2727 29.1921C79.0696 28.8782 78.968 28.4873 78.968 28.0195C78.968 27.6256 79.0404 27.2947 79.185 27.027C79.3297 26.7592 79.5266 26.5438 79.7759 26.3807C80.0252 26.2176 80.3084 26.0945 80.6254 26.0114C80.9454 25.9283 81.2809 25.8698 81.6317 25.8359C82.0442 25.7929 82.3765 25.7528 82.6289 25.7159C82.8813 25.6759 83.0644 25.6174 83.1783 25.5405C83.2921 25.4635 83.3491 25.3497 83.3491 25.1989V25.1712C83.3491 24.8788 83.2567 24.6526 83.0721 24.4925C82.8905 24.3325 82.632 24.2525 82.2965 24.2525C81.9426 24.2525 81.661 24.331 81.4517 24.4879C81.2424 24.6418 81.1039 24.8357 81.0362 25.0696L79.2173 24.9219C79.3097 24.491 79.4912 24.1186 79.7621 23.8047C80.0329 23.4877 80.3822 23.2446 80.81 23.0753C81.2409 22.9029 81.7395 22.8168 82.3058 22.8168C82.6997 22.8168 83.0767 22.8629 83.4368 22.9553C83.8 23.0476 84.1216 23.1907 84.4016 23.3846C84.6848 23.5785 84.9079 23.8278 85.071 24.1325C85.2341 24.4341 85.3157 24.7957 85.3157 25.2173V30H83.4506V29.0167H83.3952C83.2814 29.2383 83.129 29.4337 82.9382 29.603C82.7474 29.7692 82.5181 29.9 82.2504 29.9954C81.9826 30.0877 81.6733 30.1339 81.3224 30.1339ZM81.8857 28.7766C82.175 28.7766 82.4304 28.7197 82.652 28.6058C82.8736 28.4889 83.0475 28.3319 83.1737 28.1349C83.2998 27.938 83.3629 27.7148 83.3629 27.4656V26.7131C83.3014 26.7531 83.2167 26.79 83.109 26.8239C83.0044 26.8546 82.8859 26.8839 82.7536 26.9116C82.6212 26.9362 82.4889 26.9593 82.3565 26.9808C82.2242 26.9993 82.1042 27.0162 81.9964 27.0316C81.7656 27.0655 81.564 27.1193 81.3917 27.1932C81.2193 27.267 81.0855 27.3671 80.9901 27.4933C80.8946 27.6164 80.8469 27.7702 80.8469 27.9549C80.8469 28.2227 80.9439 28.4273 81.1378 28.5689C81.3348 28.7074 81.584 28.7766 81.8857 28.7766ZM88.8081 25.9006V30H86.8414V22.9091H88.7157V24.1602H88.7988C88.9558 23.7478 89.2189 23.4215 89.5882 23.1815C89.9576 22.9383 90.4054 22.8168 90.9316 22.8168C91.4241 22.8168 91.8534 22.9245 92.2196 23.1399C92.5859 23.3554 92.8706 23.6631 93.0737 24.0632C93.2768 24.4602 93.3784 24.9342 93.3784 25.4851V30H91.4118V25.8359C91.4148 25.402 91.304 25.0634 91.0794 24.8203C90.8547 24.5741 90.5454 24.451 90.1515 24.451C89.8868 24.451 89.6529 24.5079 89.4498 24.6218C89.2497 24.7357 89.0927 24.9019 88.9789 25.1204C88.8681 25.3358 88.8111 25.5959 88.8081 25.9006ZM98.7 22.9091V24.3864H94.4298V22.9091H98.7ZM95.3992 21.2102H97.3659V27.821C97.3659 28.0026 97.3936 28.1442 97.449 28.2457C97.5044 28.3442 97.5813 28.4135 97.6798 28.4535C97.7813 28.4935 97.8983 28.5135 98.0306 28.5135C98.123 28.5135 98.2153 28.5058 98.3076 28.4904C98.3999 28.4719 98.4707 28.4581 98.52 28.4489L98.8293 29.9123C98.7308 29.9431 98.5923 29.9785 98.4138 30.0185C98.2353 30.0616 98.0183 30.0877 97.7629 30.0969C97.2889 30.1154 96.8734 30.0523 96.5164 29.9077C96.1625 29.763 95.887 29.5384 95.6901 29.2337C95.4931 28.929 95.3962 28.5443 95.3992 28.0795V21.2102ZM102.003 30.1339C101.551 30.1339 101.148 30.0554 100.794 29.8984C100.44 29.7384 100.16 29.503 99.9534 29.1921C99.7503 28.8782 99.6487 28.4873 99.6487 28.0195C99.6487 27.6256 99.721 27.2947 99.8657 27.027C100.01 26.7592 100.207 26.5438 100.457 26.3807C100.706 26.2176 100.989 26.0945 101.306 26.0114C101.626 25.9283 101.962 25.8698 102.312 25.8359C102.725 25.7929 103.057 25.7528 103.31 25.7159C103.562 25.6759 103.745 25.6174 103.859 25.5405C103.973 25.4635 104.03 25.3497 104.03 25.1989V25.1712C104.03 24.8788 103.937 24.6526 103.753 24.4925C103.571 24.3325 103.313 24.2525 102.977 24.2525C102.623 24.2525 102.342 24.331 102.132 24.4879C101.923 24.6418 101.785 24.8357 101.717 25.0696L99.898 24.9219C99.9903 24.491 100.172 24.1186 100.443 23.8047C100.714 23.4877 101.063 23.2446 101.491 23.0753C101.922 22.9029 102.42 22.8168 102.986 22.8168C103.38 22.8168 103.757 22.8629 104.117 22.9553C104.481 23.0476 104.802 23.1907 105.082 23.3846C105.365 23.5785 105.589 23.8278 105.752 24.1325C105.915 24.4341 105.996 24.7957 105.996 25.2173V30H104.131V29.0167H104.076C103.962 29.2383 103.81 29.4337 103.619 29.603C103.428 29.7692 103.199 29.9 102.931 29.9954C102.663 30.0877 102.354 30.1339 102.003 30.1339ZM102.566 28.7766C102.856 28.7766 103.111 28.7197 103.333 28.6058C103.554 28.4889 103.728 28.3319 103.854 28.1349C103.98 27.938 104.044 27.7148 104.044 27.4656V26.7131C103.982 26.7531 103.897 26.79 103.79 26.8239C103.685 26.8546 103.567 26.8839 103.434 26.9116C103.302 26.9362 103.17 26.9593 103.037 26.9808C102.905 26.9993 102.785 27.0162 102.677 27.0316C102.446 27.0655 102.245 27.1193 102.072 27.1932C101.9 27.267 101.766 27.3671 101.671 27.4933C101.575 27.6164 101.528 27.7702 101.528 27.9549C101.528 28.2227 101.625 28.4273 101.818 28.5689C102.015 28.7074 102.265 28.7766 102.566 28.7766ZM113.422 24.9311L111.622 25.0419C111.591 24.888 111.525 24.7495 111.423 24.6264C111.321 24.5002 111.188 24.4002 111.021 24.3263C110.858 24.2494 110.663 24.2109 110.435 24.2109C110.13 24.2109 109.873 24.2756 109.664 24.4048C109.455 24.531 109.35 24.7003 109.35 24.9126C109.35 25.0819 109.418 25.225 109.553 25.342C109.689 25.4589 109.921 25.5528 110.25 25.6236L111.534 25.8821C112.223 26.0237 112.737 26.2514 113.076 26.5653C113.414 26.8793 113.584 27.2917 113.584 27.8026C113.584 28.2673 113.447 28.6751 113.173 29.0259C112.902 29.3768 112.529 29.6507 112.055 29.8477C111.585 30.0415 111.041 30.1385 110.426 30.1385C109.487 30.1385 108.739 29.9431 108.182 29.5522C107.628 29.1583 107.304 28.6228 107.208 27.9457L109.142 27.8441C109.201 28.1303 109.343 28.3488 109.567 28.4996C109.792 28.6474 110.08 28.7212 110.43 28.7212C110.775 28.7212 111.052 28.6551 111.261 28.5227C111.474 28.3873 111.582 28.2134 111.585 28.0011C111.582 27.8226 111.506 27.6764 111.358 27.5625C111.211 27.4455 110.983 27.3563 110.675 27.2947L109.447 27.0501C108.755 26.9116 108.239 26.6715 107.901 26.3299C107.565 25.9883 107.397 25.5528 107.397 25.0234C107.397 24.5679 107.521 24.1755 107.767 23.8462C108.016 23.5169 108.365 23.263 108.815 23.0845C109.267 22.906 109.796 22.8168 110.403 22.8168C111.298 22.8168 112.003 23.006 112.517 23.3846C113.034 23.7631 113.336 24.2786 113.422 24.9311ZM116.036 32.6591C115.787 32.6591 115.553 32.6391 115.334 32.5991C115.119 32.5621 114.94 32.5144 114.799 32.456L115.242 30.9879C115.473 31.0587 115.681 31.0972 115.865 31.1033C116.053 31.1095 116.215 31.0664 116.35 30.9741C116.488 30.8817 116.601 30.7248 116.687 30.5032L116.802 30.2031L114.259 22.9091H116.327L117.795 28.1165H117.869L119.351 22.9091H121.433L118.677 30.7663C118.544 31.148 118.364 31.4804 118.137 31.7635C117.912 32.0497 117.627 32.2698 117.282 32.4237C116.938 32.5806 116.522 32.6591 116.036 32.6591Z" fill="#4D4D4D"/>
<path d="M71.8217 42V32.5455H73.8207V40.3519H77.8739V42H71.8217ZM79.1608 42V34.9091H81.1274V42H79.1608ZM80.1487 33.995C79.8563 33.995 79.6055 33.8981 79.3962 33.7042C79.19 33.5072 79.0869 33.2718 79.0869 32.9979C79.0869 32.727 79.19 32.4947 79.3962 32.3008C79.6055 32.1038 79.8563 32.0053 80.1487 32.0053C80.4411 32.0053 80.6904 32.1038 80.8966 32.3008C81.1059 32.4947 81.2105 32.727 81.2105 32.9979C81.2105 33.2718 81.1059 33.5072 80.8966 33.7042C80.6904 33.8981 80.4411 33.995 80.1487 33.995ZM82.7028 42V34.9091H84.5771V36.1602H84.6602C84.8079 35.7447 85.0541 35.4169 85.3988 35.1768C85.7435 34.9368 86.1559 34.8168 86.636 34.8168C87.1223 34.8168 87.5362 34.9383 87.8778 35.1815C88.2195 35.4215 88.4472 35.7478 88.5611 36.1602H88.6349C88.7796 35.7539 89.0412 35.4292 89.4197 35.1861C89.8014 34.9399 90.2522 34.8168 90.7724 34.8168C91.4341 34.8168 91.9711 35.0276 92.3835 35.4492C92.799 35.8678 93.0067 36.4618 93.0067 37.2312V42H91.0447V37.619C91.0447 37.225 90.9401 36.9296 90.7308 36.7326C90.5215 36.5356 90.2599 36.4371 89.946 36.4371C89.589 36.4371 89.3105 36.551 89.1104 36.7788C88.9104 37.0034 88.8104 37.3004 88.8104 37.6697V42H86.9038V37.5774C86.9038 37.2296 86.8037 36.9527 86.6037 36.7464C86.4067 36.5402 86.1467 36.4371 85.8235 36.4371C85.605 36.4371 85.408 36.4925 85.2326 36.6033C85.0603 36.7111 84.9233 36.8634 84.8217 37.0604C84.7202 37.2543 84.6694 37.482 84.6694 37.7436V42H82.7028ZM94.5602 42V34.9091H96.5268V42H94.5602ZM95.5481 33.995C95.2557 33.995 95.0049 33.8981 94.7956 33.7042C94.5894 33.5072 94.4863 33.2718 94.4863 32.9979C94.4863 32.727 94.5894 32.4947 94.7956 32.3008C95.0049 32.1038 95.2557 32.0053 95.5481 32.0053C95.8405 32.0053 96.0898 32.1038 96.296 32.3008C96.5053 32.4947 96.6099 32.727 96.6099 32.9979C96.6099 33.2718 96.5053 33.5072 96.296 33.7042C96.0898 33.8981 95.8405 33.995 95.5481 33.995ZM101.874 34.9091V36.3864H97.6036V34.9091H101.874ZM98.5731 33.2102H100.54V39.821C100.54 40.0026 100.567 40.1442 100.623 40.2457C100.678 40.3442 100.755 40.4135 100.854 40.4535C100.955 40.4935 101.072 40.5135 101.204 40.5135C101.297 40.5135 101.389 40.5058 101.481 40.4904C101.574 40.4719 101.645 40.4581 101.694 40.4489L102.003 41.9123C101.905 41.9431 101.766 41.9785 101.588 42.0185C101.409 42.0616 101.192 42.0877 100.937 42.0969C100.463 42.1154 100.047 42.0523 99.6903 41.9077C99.3363 41.763 99.0609 41.5384 98.8639 41.2337C98.6669 40.929 98.57 40.5443 98.5731 40.0795V33.2102ZM106.31 42.1385C105.581 42.1385 104.953 41.9908 104.427 41.6953C103.904 41.3968 103.5 40.9751 103.217 40.4304C102.934 39.8826 102.793 39.2347 102.793 38.4869C102.793 37.7575 102.934 37.1173 103.217 36.5664C103.5 36.0155 103.899 35.5862 104.413 35.2784C104.93 34.9706 105.536 34.8168 106.232 34.8168C106.7 34.8168 107.135 34.8922 107.538 35.043C107.945 35.1907 108.298 35.4138 108.6 35.7124C108.905 36.0109 109.142 36.3864 109.311 36.8388C109.48 37.2881 109.565 37.8144 109.565 38.4176V38.9577H103.577V37.739H107.714C107.714 37.4558 107.652 37.205 107.529 36.9865C107.406 36.768 107.235 36.5972 107.017 36.4741C106.801 36.3479 106.55 36.2848 106.264 36.2848C105.966 36.2848 105.701 36.354 105.47 36.4925C105.242 36.628 105.064 36.8111 104.935 37.0419C104.805 37.2696 104.739 37.5236 104.736 37.8036V38.9624C104.736 39.3132 104.801 39.6164 104.93 39.8718C105.062 40.1272 105.248 40.3242 105.489 40.4627C105.729 40.6012 106.013 40.6705 106.343 40.6705C106.561 40.6705 106.761 40.6397 106.943 40.5781C107.124 40.5166 107.28 40.4242 107.409 40.3011C107.538 40.178 107.637 40.0272 107.704 39.8487L109.523 39.9688C109.431 40.4058 109.242 40.7874 108.956 41.1136C108.672 41.4368 108.306 41.6892 107.857 41.8707C107.411 42.0492 106.895 42.1385 106.31 42.1385ZM113.461 42.1154C112.923 42.1154 112.435 41.9769 111.998 41.6999C111.564 41.4199 111.219 41.009 110.964 40.4673C110.711 39.9226 110.585 39.2547 110.585 38.4638C110.585 37.6513 110.716 36.9757 110.978 36.4371C111.239 35.8955 111.587 35.4908 112.021 35.223C112.458 34.9522 112.936 34.8168 113.457 34.8168C113.854 34.8168 114.184 34.8845 114.449 35.0199C114.717 35.1522 114.932 35.3184 115.095 35.5185C115.262 35.7154 115.388 35.9093 115.474 36.1001H115.534V32.5455H117.496V42H115.557V40.8643H115.474C115.382 41.0613 115.251 41.2567 115.082 41.4506C114.915 41.6415 114.698 41.8 114.431 41.9261C114.166 42.0523 113.843 42.1154 113.461 42.1154ZM114.084 40.5504C114.401 40.5504 114.669 40.4643 114.888 40.2919C115.109 40.1165 115.279 39.8718 115.396 39.5579C115.516 39.244 115.576 38.8762 115.576 38.4545C115.576 38.0329 115.517 37.6667 115.4 37.3558C115.283 37.045 115.114 36.8049 114.892 36.6357C114.671 36.4664 114.401 36.3817 114.084 36.3817C113.761 36.3817 113.489 36.4695 113.267 36.6449C113.046 36.8203 112.878 37.0634 112.764 37.3743C112.65 37.6851 112.593 38.0452 112.593 38.4545C112.593 38.867 112.65 39.2317 112.764 39.5487C112.881 39.8626 113.049 40.1088 113.267 40.2873C113.489 40.4627 113.761 40.5504 114.084 40.5504Z" fill="#4D4D4D"/>
</g>
</g>
<defs>
<clipPath id="clip0_1_6783">
<rect width="131" height="50" fill="white" transform="translate(0.5)"/>
</clipPath>
</defs>
</svg>
